<?xml version="1.0" encoding="UTF-8"?>
<svg id="Layer_2" data-name="Layer 2" xmlns="http://www.w3.org/2000/svg" viewBox="0 0 594.29 335">
  <g id="sm">
    <path d="M556.96,192.91c-2.7.79-5.54,1.17-8.5,1.17-5.85,0-10.43-1.93-13.78-5.77-3.33-3.86-5.76-10.18-7.24-18.96l-4.06-23.11,70.9-75.48-22.44-26.02c-3.71-4.3-10.42-4.14-13.92.33l-42.72,54.53-.34-1.94c-3.39-19.5-8.75-33.67-16.06-42.53-7.33-8.84-17.73-13.27-31.2-13.27-9.77,0-21.43,3.13-34.98,9.38-8.16-5.6-17.93-7.82-29.29-6.68-14.24,1.44-25.94,6.82-35.09,16.14-7.02,7.18-11.8,16.22-14.32,27.13l-3.43.34h0c.11-17.38-14.24-31.37-31.62-30.82l-66.33.47L261.51,0h-43.76l-8.95,57.8h-35.38s-50.5,3.12-71.09,9.84c-20.58,6.74-38.54,16.39-53.87,28.9-15.34,12.53-27.23,27.6-35.72,45.24C4.24,159.42,0,179.08,0,200.75c0,17.1,4.35,30.34,13.05,39.73,8.7,9.38,21.02,14.09,36.92,14.09s29.07-5.99,40.74-17.98c6.87-7.05,12.68-15.82,17.41-26.28h5.86c-.32,3.86-.46,7.75-.43,11.65.06,5.48,1.25,10.54,3.58,15.17,2.33,4.64,6.6,8.38,12.81,11.2,6.22,2.82,15.09,4.24,26.66,4.24h17.34l6.37-41.35h-7.64c-8.7,0-14.43-1.56-17.19-4.69-2.76-3.13-3.5-8.92-2.24-17.34l13.27-86.42h35.32l-5.42,35.03c-1.39,9.27-2.44,17.07-3.18,23.39-.76,6.33-1.25,12.04-1.51,17.16-.28,5.12-.4,10.45-.4,15.99,0,18.66,5.28,33.07,15.83,43.25,10.55,10.17,25.38,15.26,44.48,15.26,11.99,0,22.59-1.16,31.82-3.44,5.46-1.36,10.75-2.84,15.88-4.49l-4.81,90.1,43.54-4.38,4.29-80.36c17.44-2.14,33.33-7.08,47.71-14.8,9.29-5,17.71-10.89,25.31-17.7l23.11,28.33,51.63-61.89.09.49c3.7,19.38,9.41,33.53,17.1,42.43,7.7,8.9,18.81,13.36,33.34,13.36,11.99,0,23.93-3.86,35.81-11.56l-10.83-39.55c-3.07,1.56-5.96,2.73-8.67,3.52ZM60.32,208.15c-5.51,0-9.6-1.42-12.25-4.24-2.65-2.82-3.98-7.19-3.98-13.1,0-11.91,2.5-23.02,7.48-33.31,4.98-10.29,11.94-19.32,20.85-27.1,8.92-7.76,19.3-13.96,31.2-18.59,5.99-2.33,12.22-4.17,18.67-5.46l-3.72,23.98c-3.81,24.8-11,43.96-21.56,57.51-10.57,13.55-22.79,20.32-36.69,20.32ZM280.44,204.62c-6.03,1.2-13.04,1.81-21,1.81-8.38,0-14.47-1.81-18.3-5.42-3.81-3.61-5.72-9.46-5.72-17.53,0-6.73.34-13.12,1.03-19.13.68-6.02,1.93-14.87,3.73-26.56l5.42-35.03h61.33l-5.11,95.56c-8.24,2.99-15.37,5.09-21.39,6.3ZM382.28,188.96c-10.75,7.84-23.22,12.65-37.4,14.44l1.51-28.33c1.23-18.27,4.1-33.34,8.59-45.26,4.54-12.07,10.05-21.15,16.53-27.25,6.48-6.09,13.25-9.5,20.32-10.21,6.34-.63,11.46,1,15.37,4.89,3.92,3.9,6.26,9.81,7.07,17.71,1.54,15.34-.56,29.44-6.31,42.29-5.74,12.85-14.3,23.44-25.68,31.71ZM447.03,173.94c2.24-5.09,4.18-10.38,5.8-15.85,5.03-16.85,6.59-34.73,4.68-53.65-.57-5.71-1.42-11-2.58-15.92,1.59-.17,3.21-.26,4.89-.26,4.46,0,7.98,1.96,10.59,5.86,2.59,3.92,4.74,10.26,6.43,19.06l4.69,25.04-34.5,35.72Z"/>
  </g>
</svg>