<?xml version="1.0" encoding="UTF-8"?>
<svg id="main" xmlns="http://www.w3.org/2000/svg" viewBox="0 0 1080 1080">
  <path d="M888.92,590.65c-3.77,1.1-7.73,1.64-11.86,1.64-8.16,0-14.56-2.69-19.23-8.05-4.65-5.38-8.03-14.21-10.1-26.46l-5.66-32.25,98.94-105.33-31.31-36.3c-5.17-6-14.54-5.78-19.42.46l-59.62,76.09-.47-2.71c-4.74-27.22-12.21-46.98-22.41-59.34-10.23-12.34-24.74-18.52-43.54-18.52-13.63,0-29.91,4.37-48.81,13.09-11.39-7.82-25.02-10.92-40.87-9.32-19.87,2-36.19,9.52-48.96,22.52-9.8,10.01-16.47,22.63-19.98,37.85l-4.78.47h0c.15-24.25-19.88-43.78-44.12-43.01l-13.33.42-.02.24h-79.21l12.49-80.66h-61.06l-12.49,80.66h-49.37l.06-.37h-5.56c-33.74,0-64.98,4.72-93.71,14.1-28.72,9.41-53.79,22.87-75.17,40.33-21.4,17.48-38,38.52-49.85,63.13-11.86,24.61-17.79,52.04-17.79,82.27,0,23.86,6.07,42.33,18.22,55.44,12.14,13.09,29.33,19.66,51.53,19.66s40.57-8.35,56.84-25.08c9.58-9.84,17.7-22.07,24.29-36.67h8.18c-.45,5.38-.65,10.81-.6,16.26.09,7.64,1.74,14.71,5,21.17,3.25,6.48,9.22,11.69,17.87,15.63,8.68,3.94,21.06,5.92,37.21,5.92h24.2l8.89-57.7h-10.66c-12.14,0-20.13-2.17-23.99-6.55-3.85-4.37-4.89-12.45-3.12-24.2l18.52-120.6h49.29l-7.56,48.88c-1.94,12.94-3.4,23.81-4.44,32.64-1.06,8.83-1.74,16.79-2.11,23.94-.39,7.15-.56,14.58-.56,22.31,0,26.03,7.36,46.14,22.09,60.35,14.73,14.19,35.42,21.29,62.08,21.29,16.73,0,31.52-1.61,44.4-4.8,7.62-1.89,15.01-3.96,22.16-6.27l-6.72,125.72,60.76-6.12,5.99-112.14c24.33-2.99,46.51-9.88,66.58-20.65,12.96-6.98,24.72-15.2,35.31-24.7l32.25,39.53,72.04-86.36.13.69c5.17,27.04,13.13,46.79,23.86,59.21,10.74,12.42,26.25,18.65,46.53,18.65,16.73,0,33.4-5.38,49.97-16.13l-15.12-55.19c-4.28,2.17-8.31,3.81-12.1,4.91ZM195.88,611.92c-7.69,0-13.39-1.98-17.1-5.92-3.7-3.94-5.56-10.03-5.56-18.28,0-16.62,3.49-32.13,10.44-46.49,6.95-14.36,16.67-26.96,29.09-37.81,12.45-10.83,26.94-19.49,43.54-25.95,8.35-3.25,17.05-5.81,26.05-7.62l-5.19,33.46c-5.32,34.6-15.35,61.34-30.08,80.25-14.75,18.9-31.8,28.36-51.2,28.36ZM503.05,606.99c-8.42,1.68-18.19,2.52-29.3,2.52-11.69,0-20.2-2.52-25.54-7.56-5.32-5.04-7.99-13.2-7.99-24.46,0-9.39.47-18.3,1.44-26.7.95-8.4,2.69-20.76,5.21-37.06l7.56-48.88h85.59l-7.13,133.35c-11.5,4.18-21.45,7.11-29.84,8.78ZM645.16,585.14c-15.01,10.94-32.41,17.66-52.19,20.15l2.11-39.53c1.72-25.49,5.73-46.53,11.99-63.15,6.33-16.84,14.02-29.52,23.06-38.02,9.04-8.51,18.5-13.26,28.36-14.25,8.85-.88,16,1.4,21.45,6.83,5.47,5.45,8.74,13.69,9.86,24.72,2.15,21.4-.78,41.08-8.81,59.02-8.01,17.94-19.96,32.71-35.83,44.25ZM735.5,564.18c3.12-7.11,5.84-14.49,8.1-22.11,7.02-23.51,9.19-48.47,6.52-74.87-.8-7.97-1.98-15.35-3.6-22.22,2.22-.24,4.48-.37,6.83-.37,6.22,0,11.13,2.73,14.77,8.18,3.62,5.47,6.61,14.32,8.98,26.59l6.55,34.95-48.14,49.85Z"/>
</svg>